<svg width="25" height="24" viewBox="0 0 25 24" fill="none" xmlns="http://www.w3.org/2000/svg">
<path fill-rule="evenodd" clip-rule="evenodd" d="M12.4973 4.5C11.8291 4.49843 11.163 4.57455 10.5124 4.72684C10.2435 4.78978 9.97453 4.62283 9.9116 4.35396C9.84866 4.08508 10.0156 3.8161 10.2845 3.75316C11.0104 3.58325 11.7535 3.49829 12.499 3.5C16.1985 3.50023 19.0713 5.61333 20.9882 7.65803C21.9513 8.6853 22.688 9.71066 23.1841 10.4787C23.4324 10.8633 23.6212 11.1846 23.7487 11.4111C23.8124 11.5244 23.8608 11.6141 23.8937 11.6763C23.9102 11.7074 23.9228 11.7316 23.9314 11.7484L23.9415 11.7681L23.9443 11.7737L23.9452 11.7754C23.9453 11.7756 23.9457 11.7764 23.4984 12L23.0575 11.7643C23.0158 11.8423 22.9735 11.9201 22.9306 11.9975C22.9144 11.968 22.8966 11.936 22.8771 11.9014C22.7584 11.6904 22.5801 11.3867 22.344 11.0213C21.8713 10.2893 21.1706 9.3147 20.2587 8.34197C18.4257 6.38678 15.7987 4.5 12.4984 4.5L12.4973 4.5ZM22.9306 11.9975C22.3668 13.0158 21.7055 13.9772 20.9559 14.8681C20.7781 15.0794 20.8052 15.3948 21.0165 15.5726C21.2278 15.7504 21.5432 15.7232 21.721 15.5119C22.5725 14.5 23.316 13.402 23.9394 12.2357C24.0158 12.0927 24.0182 11.9215 23.9457 11.7764L23.4984 12C23.0512 12.2236 23.0513 12.2237 23.0513 12.2238L23.0495 12.2203L23.0421 12.2057C23.0352 12.1922 23.0244 12.1715 23.0099 12.144C22.9903 12.107 22.9639 12.0578 22.9306 11.9975ZM6.95739 5.75655C7.12498 5.97602 7.08292 6.2898 6.86345 6.45739C4.89974 7.9569 3.26752 9.84507 2.06807 12.003C2.08423 12.0323 2.10198 12.0642 2.12133 12.0986C2.23999 12.3096 2.41836 12.6133 2.65439 12.9787C3.12709 13.7107 3.82783 14.6853 4.73977 15.658C6.572 17.6124 9.19759 19.4984 12.4959 19.5C14.5369 19.4658 16.5134 18.7798 18.1369 17.5424C18.3565 17.3749 18.6702 17.4173 18.8377 17.6369C19.0051 17.8565 18.9627 18.1702 18.7431 18.3376C16.9488 19.7053 14.764 20.4631 12.5082 20.4999L12.5 20.5001C8.80025 20.5001 5.92724 18.3868 4.01023 16.342C3.04717 15.3147 2.31041 14.2893 1.81436 13.5213C1.56602 13.1367 1.37719 12.8154 1.24976 12.5889C1.18602 12.4756 1.13759 12.3859 1.10469 12.3237C1.08824 12.2926 1.07567 12.2684 1.06701 12.2516L1.05696 12.2319L1.05414 12.2263L1.05328 12.2246C1.05317 12.2244 1.05279 12.2236 1.5 12L1.05279 12.2236C0.980131 12.0783 0.982605 11.9067 1.05942 11.7636C2.33702 9.38266 4.10902 7.30249 6.25655 5.66261C6.47602 5.49502 6.7898 5.53708 6.95739 5.75655ZM10.7458 9.53914C10.9341 9.74117 10.9229 10.0576 10.7209 10.2458C10.052 10.869 9.7767 11.8077 10.0029 12.6934C10.2291 13.5792 10.9208 14.2709 11.8066 14.4971C12.6923 14.7233 13.631 14.448 14.2542 13.7791C14.4424 13.5771 14.7588 13.5659 14.9609 13.7542C15.1629 13.9424 15.1741 14.2588 14.9858 14.4609C14.1133 15.3972 12.7992 15.7827 11.5591 15.466C10.319 15.1493 9.3507 14.181 9.03401 12.9409C8.71731 11.7008 9.10276 10.3867 10.0391 9.51419C10.2412 9.32594 10.5576 9.33711 10.7458 9.53914Z" fill="#414141"/>
<path fill-rule="evenodd" clip-rule="evenodd" d="M1.14645 0.646447C1.34171 0.451184 1.65829 0.451184 1.85355 0.646447L23.8536 22.6464C24.0488 22.8417 24.0488 23.1583 23.8536 23.3536C23.6583 23.5488 23.3417 23.5488 23.1464 23.3536L1.14645 1.35355C0.951184 1.15829 0.951184 0.841709 1.14645 0.646447Z" fill="#414141"/>
</svg>
