<svg width="67" height="38" viewBox="0 0 67 38" fill="none" xmlns="http://www.w3.org/2000/svg">
<g clip-path="url(#clip0_1857_739)">
<path d="M0.00120123 37.1716C0.00120123 24.8191 0.000309836 12.4675 0.00207816 0.11496C22.1052 0.11496 44.2093 0.11496 66.3125 0.11496C62.5185 6.29033 58.7299 12.4701 54.9351 18.6437C58.7272 24.8191 62.5176 30.9962 66.3098 37.1725C44.2066 37.1707 22.1044 37.1724 0.00120123 37.1716ZM3.07189 8.69641C12.8622 8.69818 22.6534 8.6973 32.4438 8.6973C32.4438 6.85325 32.4438 5.0092 32.4438 3.16426C22.6534 3.16338 12.864 3.16603 3.07367 3.16338C3.07013 5.00743 3.07366 6.85236 3.07189 8.69641ZM36.0211 3.16515C37.2014 5.07537 38.3588 7.00059 39.5507 8.90464C45.4763 8.89317 51.4011 8.90376 57.3267 8.89847C58.4965 6.98648 59.6742 5.0789 60.8439 3.16603C52.5699 3.1625 44.2951 3.16515 36.0211 3.16515ZM35.5145 8.19614C35.5136 11.2172 35.5171 14.2383 35.5127 17.2593C35.5171 17.3767 35.4968 17.5064 35.5755 17.6061C38.9556 23.1171 42.3305 28.6316 45.7097 34.1426C47.6107 34.1417 49.5107 34.1434 51.4099 34.1417C46.1103 25.4941 40.8106 16.8464 35.5145 8.19614ZM3.06835 11.7528C3.07631 13.521 3.071 15.2891 3.07189 17.0573C12.8622 17.0591 22.6525 17.0582 32.4438 17.0582C32.4438 15.2874 32.4446 13.5174 32.4438 11.7466C22.6517 11.7501 12.8596 11.7387 3.06835 11.7528ZM41.3941 11.9284C42.4401 13.6392 43.4861 15.35 44.5356 17.0582C47.1315 17.0546 49.7265 17.0635 52.3224 17.0538C53.3648 15.3421 54.4196 13.6383 55.4665 11.9284C50.776 11.9284 46.0855 11.9284 41.3941 11.9284ZM3.07189 20.0881C3.07189 24.7723 3.07189 29.4574 3.07189 34.1417C16.0868 34.1426 29.1007 34.1443 42.1156 34.1408C39.2403 29.4574 36.3783 24.7653 33.4968 20.0845C23.3555 20.0916 13.2141 20.0845 3.07189 20.0881ZM46.3914 20.0881C49.2535 24.7714 52.1332 29.4433 54.9864 34.132C56.9412 34.1558 58.8961 34.1364 60.8501 34.1426C57.9757 29.453 55.1022 24.7644 52.2145 20.0828C50.2747 20.0934 48.333 20.0828 46.3914 20.0881Z" fill="#27D29C"/>
<path d="M6.46888 22.9953C14.4971 22.9953 22.5244 22.9953 30.5517 22.9953C30.5508 24.0047 30.5526 25.0149 30.5508 26.0252C22.5244 26.0243 14.4971 26.0234 6.47065 26.0252C6.46712 25.0158 6.46977 24.0047 6.46888 22.9953Z" fill="#27D29C"/>
<path d="M6.46923 28.1234C14.4974 28.1251 22.5238 28.1234 30.5512 28.1243C30.5512 29.1407 30.5512 30.158 30.5512 31.1736C22.5238 31.1736 14.4965 31.1736 6.46836 31.1736C6.46836 30.1571 6.46658 29.1407 6.46923 28.1234Z" fill="#27D29C"/>
</g>
<defs>
<clipPath id="clip0_1857_739">
<rect width="66.3121" height="37.0575" fill="white" transform="translate(0 0.11496)"/>
</clipPath>
</defs>
</svg>
